<svg width="134" height="25" viewBox="0 0 134 25" fill="none" xmlns="http://www.w3.org/2000/svg">
<path d="M0.0880001 24V21.248L8.568 10.944H0.216V8.128H12.408V10.88L3.864 21.184H12.568V24H0.0880001ZM25.7143 24.384C24.1569 24.384 22.7703 24.0427 21.5543 23.36C20.3596 22.656 19.4209 21.6853 18.7382 20.448C18.0556 19.2107 17.7142 17.7707 17.7142 16.128C17.7142 14.464 18.0449 13.0027 18.7062 11.744C19.3889 10.4853 20.3276 9.504 21.5223 8.8C22.7383 8.096 24.1463 7.744 25.7463 7.744C27.3036 7.744 28.6583 8.096 29.8103 8.8C30.9623 9.48267 31.8583 10.4 32.4983 11.552C33.1383 12.704 33.4583 13.9733 33.4583 15.36C33.4583 15.5733 33.4476 15.808 33.4263 16.064C33.4263 16.2987 33.4156 16.5653 33.3943 16.864H21.0423C21.1489 18.4 21.6502 19.5733 22.5462 20.384C23.4636 21.1733 24.5196 21.568 25.7143 21.568C26.6743 21.568 27.4743 21.3547 28.1143 20.928C28.7756 20.48 29.2663 19.8827 29.5863 19.136H32.9783C32.5516 20.6293 31.6983 21.8773 30.4183 22.88C29.1596 23.8827 27.5916 24.384 25.7143 24.384ZM25.7143 10.528C24.5836 10.528 23.5809 10.8693 22.7063 11.552C21.8316 12.2133 21.2982 13.216 21.1062 14.56H30.0663C30.0023 13.3227 29.5649 12.3413 28.7543 11.616C27.9436 10.8907 26.9303 10.528 25.7143 10.528ZM39.2177 24V8.128H42.2577L42.5457 11.136C43.1004 10.0907 43.8684 9.26933 44.8498 8.672C45.8524 8.05333 47.0578 7.744 48.4657 7.744V11.296H47.5378C46.5991 11.296 45.7564 11.456 45.0097 11.776C44.2844 12.0747 43.6977 12.5973 43.2497 13.344C42.8231 14.0693 42.6097 15.0827 42.6097 16.384V24H39.2177ZM60.4085 24.384C58.8725 24.384 57.5178 24.0213 56.3445 23.296C55.1712 22.5707 54.2538 21.5787 53.5925 20.32C52.9312 19.0613 52.6005 17.632 52.6005 16.032C52.6005 14.432 52.9312 13.0133 53.5925 11.776C54.2538 10.5173 55.1712 9.536 56.3445 8.832C57.5392 8.10667 58.9045 7.744 60.4405 7.744C61.6992 7.744 62.7978 7.98933 63.7365 8.48C64.6965 8.97067 65.4432 9.664 65.9765 10.56V0.959999H69.3685V24H66.3285L65.9765 21.536C65.4645 22.2827 64.7605 22.944 63.8645 23.52C62.9685 24.096 61.8165 24.384 60.4085 24.384ZM61.0165 21.44C62.4672 21.44 63.6512 20.9387 64.5685 19.936C65.5072 18.9333 65.9765 17.6427 65.9765 16.064C65.9765 14.464 65.5072 13.1733 64.5685 12.192C63.6512 11.1893 62.4672 10.688 61.0165 10.688C59.5658 10.688 58.3712 11.1893 57.4325 12.192C56.4938 13.1733 56.0245 14.464 56.0245 16.064C56.0245 17.1093 56.2378 18.0373 56.6645 18.848C57.0912 19.6587 57.6778 20.2987 58.4245 20.768C59.1925 21.216 60.0565 21.44 61.0165 21.44ZM83.3092 24.384C81.7519 24.384 80.3652 24.0427 79.1492 23.36C77.9546 22.656 77.0159 21.6853 76.3332 20.448C75.6506 19.2107 75.3092 17.7707 75.3092 16.128C75.3092 14.464 75.6399 13.0027 76.3012 11.744C76.9839 10.4853 77.9226 9.504 79.1172 8.8C80.3332 8.096 81.7412 7.744 83.3412 7.744C84.8986 7.744 86.2532 8.096 87.4052 8.8C88.5573 9.48267 89.4533 10.4 90.0933 11.552C90.7332 12.704 91.0532 13.9733 91.0532 15.36C91.0532 15.5733 91.0426 15.808 91.0212 16.064C91.0212 16.2987 91.0106 16.5653 90.9893 16.864H78.6372C78.7439 18.4 79.2452 19.5733 80.1412 20.384C81.0586 21.1733 82.1146 21.568 83.3092 21.568C84.2692 21.568 85.0692 21.3547 85.7092 20.928C86.3706 20.48 86.8612 19.8827 87.1812 19.136H90.5732C90.1466 20.6293 89.2933 21.8773 88.0132 22.88C86.7546 23.8827 85.1866 24.384 83.3092 24.384ZM83.3092 10.528C82.1786 10.528 81.1759 10.8693 80.3012 11.552C79.4266 12.2133 78.8932 13.216 78.7012 14.56H87.6613C87.5972 13.3227 87.1599 12.3413 86.3492 11.616C85.5386 10.8907 84.5252 10.528 83.3092 10.528ZM103.149 24.384C101.143 24.384 99.4901 23.8933 98.1887 22.912C96.8874 21.9307 96.1407 20.6293 95.9487 19.008H99.3727C99.5434 19.7333 99.9487 20.3627 100.589 20.896C101.229 21.408 102.071 21.664 103.117 21.664C104.141 21.664 104.887 21.4507 105.357 21.024C105.826 20.5973 106.061 20.1067 106.061 19.552C106.061 18.7413 105.73 18.1973 105.069 17.92C104.429 17.6213 103.533 17.3547 102.381 17.12C101.485 16.928 100.589 16.672 99.6927 16.352C98.8181 16.032 98.0821 15.584 97.4847 15.008C96.9087 14.4107 96.6207 13.6107 96.6207 12.608C96.6207 11.2213 97.1541 10.0693 98.2207 9.152C99.2874 8.21333 100.781 7.744 102.701 7.744C104.471 7.744 105.901 8.17067 106.989 9.024C108.098 9.87733 108.749 11.0827 108.941 12.64H105.677C105.57 11.9573 105.25 11.424 104.717 11.04C104.205 10.656 103.511 10.464 102.637 10.464C101.783 10.464 101.122 10.6453 100.653 11.008C100.183 11.3493 99.9487 11.7973 99.9487 12.352C99.9487 12.9067 100.269 13.344 100.909 13.664C101.57 13.984 102.434 14.272 103.501 14.528C104.567 14.7627 105.549 15.04 106.445 15.36C107.362 15.6587 108.098 16.1067 108.653 16.704C109.207 17.3013 109.485 18.176 109.485 19.328C109.506 20.7787 108.941 21.984 107.789 22.944C106.658 23.904 105.111 24.384 103.149 24.384ZM121.49 24C119.933 24 118.695 23.6267 117.778 22.88C116.861 22.112 116.402 20.7573 116.402 18.816V10.976H113.682V8.128H116.402L116.818 4.096H119.794V8.128H124.274V10.976H119.794V18.816C119.794 19.6907 119.975 20.2987 120.338 20.64C120.722 20.96 121.373 21.12 122.29 21.12H124.114V24H121.49ZM131.355 24.192C130.715 24.192 130.182 23.9893 129.755 23.584C129.35 23.1573 129.147 22.656 129.147 22.08C129.147 21.4827 129.35 20.9813 129.755 20.576C130.182 20.1493 130.715 19.936 131.355 19.936C131.995 19.936 132.518 20.1493 132.923 20.576C133.329 20.9813 133.531 21.4827 133.531 22.08C133.531 22.656 133.329 23.1573 132.923 23.584C132.518 23.9893 131.995 24.192 131.355 24.192Z" fill="black"/>
</svg>
